<svg width="54" height="52" viewBox="0 0 54 52" fill="none" xmlns="http://www.w3.org/2000/svg">
<path d="M44.7079 32.7525H39.857L32.7767 25.6721C32.0277 24.9149 31.1353 24.3145 30.1516 23.9062C29.1679 23.4979 28.1127 23.2897 27.0476 23.294H15.2913C14.4817 23.2945 13.6825 23.4769 12.9528 23.8277C12.2231 24.1785 11.5816 24.6888 11.0756 25.3208L7.29217 30.0501H5.23834C3.80488 30.0501 2.43014 30.6195 1.41654 31.6331C0.402933 32.6467 -0.166504 34.0215 -0.166504 35.4549V42.211C-0.166504 43.6445 0.402933 45.0192 1.41654 46.0328C2.43014 47.0464 3.80488 47.6159 5.23834 47.6159H8.31909C8.73224 48.7987 9.50303 49.8239 10.5247 50.5492C11.5463 51.2745 12.7683 51.6642 14.0212 51.6642C15.2741 51.6642 16.4961 51.2745 17.5177 50.5492C18.5394 49.8239 19.3102 48.7987 19.7233 47.6159H31.5741C31.9873 48.7987 32.7581 49.8239 33.7797 50.5492C34.8014 51.2745 36.0233 51.6642 37.2762 51.6642C38.5292 51.6642 39.7511 51.2745 40.7728 50.5492C41.7944 49.8239 42.5652 48.7987 42.9783 47.6159H48.7615C50.195 47.6159 51.5697 47.0464 52.5833 46.0328C53.5969 45.0192 54.1664 43.6445 54.1664 42.211C54.1664 39.7025 53.1698 37.2967 51.396 35.5228C49.6222 33.749 47.2164 32.7525 44.7079 32.7525ZM13.1835 27.0099C13.4365 26.6938 13.7572 26.4387 14.1221 26.2633C14.4869 26.0879 14.8865 25.9967 15.2913 25.9964H27.0476C27.7576 25.9959 28.4607 26.1352 29.1168 26.4065C29.7729 26.6777 30.3692 27.0756 30.8715 27.5774L36.0466 32.7525H11.1972L9.75138 31.3067L13.1835 27.0099ZM14.0212 48.9671C13.3531 48.9671 12.7 48.769 12.1445 48.3978C11.589 48.0266 11.156 47.499 10.9003 46.8818C10.6446 46.2645 10.5777 45.5853 10.7081 44.93C10.8384 44.2748 11.1602 43.6728 11.6326 43.2004C12.105 42.728 12.7069 42.4063 13.3622 42.2759C14.0175 42.1456 14.6967 42.2125 15.3139 42.4682C15.9312 42.7238 16.4587 43.1568 16.8299 43.7123C17.2011 44.2678 17.3992 44.9209 17.3992 45.5891C17.3992 46.0327 17.3118 46.4719 17.1421 46.8818C16.9723 47.2916 16.7235 47.664 16.4098 47.9777C16.0961 48.2914 15.7238 48.5402 15.3139 48.71C14.9041 48.8797 14.4648 48.9671 14.0212 48.9671ZM37.2762 48.9671C36.6081 48.9671 35.955 48.769 35.3995 48.3978C34.844 48.0266 34.411 47.499 34.1553 46.8818C33.8997 46.2645 33.8328 45.5853 33.9631 44.93C34.0935 44.2748 34.4152 43.6728 34.8876 43.2004C35.36 42.728 35.9619 42.4063 36.6172 42.2759C37.2725 42.1456 37.9517 42.2125 38.5689 42.4682C39.1862 42.7238 39.7138 43.1568 40.085 43.7123C40.4561 44.2678 40.6543 44.9209 40.6543 45.5891C40.6543 46.0327 40.5669 46.4719 40.3971 46.8818C40.2274 47.2916 39.9785 47.664 39.6649 47.9777C39.3512 48.2914 38.9788 48.5402 38.5689 48.71C38.1591 48.8797 37.7198 48.9671 37.2762 48.9671ZM48.7615 44.9134H43.3567C43.1852 43.439 42.4779 42.079 41.3694 41.0919C40.2608 40.1048 38.8282 39.5594 37.3438 39.5594C35.8594 39.5594 34.4268 40.1048 33.3182 41.0919C32.2097 42.079 31.5024 43.439 31.3309 44.9134H20.1016C19.9302 43.439 19.2229 42.079 18.1143 41.0919C17.0057 40.1048 15.5731 39.5594 14.0888 39.5594C12.6044 39.5594 11.1718 40.1048 10.0632 41.0919C8.95462 42.079 8.24737 43.439 8.07588 44.9134H5.23834C4.52161 44.9134 3.83424 44.6287 3.32744 44.1219C2.82063 43.6151 2.53592 42.9277 2.53592 42.211V35.4549C2.53592 34.7382 2.82063 34.0508 3.32744 33.544C3.83424 33.0372 4.52161 32.7525 5.23834 32.7525H7.38676L9.29196 34.6577C9.79644 35.1652 10.4816 35.4519 11.1972 35.4549H44.7079C45.7567 35.4549 46.7912 35.6991 47.7293 36.1682C48.6674 36.6373 49.4834 37.3183 50.1127 38.1574H47.4103C47.0519 38.1574 46.7083 38.2997 46.4549 38.5531C46.2015 38.8065 46.0591 39.1502 46.0591 39.5086C46.0591 39.867 46.2015 40.2106 46.4549 40.464C46.7083 40.7174 47.0519 40.8598 47.4103 40.8598H51.3288C51.4152 41.3051 51.4605 41.7574 51.4639 42.211C51.4639 42.9277 51.1792 43.6151 50.6724 44.1219C50.1656 44.6287 49.4782 44.9134 48.7615 44.9134Z" fill="#1931AF"/>
<path d="M32.9383 21.5511C33.0639 21.6778 33.2133 21.7783 33.378 21.8469C33.5426 21.9155 33.7192 21.9508 33.8976 21.9508C34.076 21.9508 34.2526 21.9155 34.4173 21.8469C34.5819 21.7783 34.7314 21.6778 34.857 21.5511L45.6667 10.7414C45.9211 10.487 46.064 10.1419 46.064 9.78204C46.064 9.42221 45.9211 9.07711 45.6667 8.82267C45.4122 8.56823 45.0671 8.42529 44.7073 8.42529C44.3475 8.42529 44.0024 8.56823 43.7479 8.82267L32.9383 19.6324C32.8116 19.758 32.7111 19.9075 32.6425 20.0721C32.5739 20.2368 32.5386 20.4134 32.5386 20.5918C32.5386 20.7701 32.5739 20.9467 32.6425 21.1114C32.7111 21.2761 32.8116 21.4255 32.9383 21.5511Z" fill="#1931AF"/>
<path d="M44.0337 21.943C45.153 21.943 46.0605 21.0356 46.0605 19.9162C46.0605 18.7968 45.153 17.8894 44.0337 17.8894C42.9143 17.8894 42.0068 18.7968 42.0068 19.9162C42.0068 21.0356 42.9143 21.943 44.0337 21.943Z" fill="#1931AF"/>
<path d="M34.5727 12.4847C35.6921 12.4847 36.5995 11.5772 36.5995 10.4579C36.5995 9.33847 35.6921 8.43103 34.5727 8.43103C33.4533 8.43103 32.5459 9.33847 32.5459 10.4579C32.5459 11.5772 33.4533 12.4847 34.5727 12.4847Z" fill="#1931AF"/>
<path d="M26.8181 20.5918C27.1577 20.4832 27.4406 20.2446 27.6052 19.9282C27.7697 19.6119 27.8025 19.2433 27.6964 18.9028C27.3227 17.6998 27.1358 16.4466 27.1424 15.187C27.1389 12.8606 27.8027 10.5821 29.0551 8.6217C30.3074 6.66127 32.0958 5.10119 34.2081 4.12652C36.3204 3.15185 38.668 2.80349 40.9723 3.12277C43.2766 3.44204 45.4409 4.41555 47.2086 5.92782C48.9763 7.44009 50.2732 9.42765 50.9454 11.6547C51.6176 13.8818 51.6369 16.255 51.001 18.4927C50.3651 20.7304 49.1007 22.7388 47.3579 24.2796C45.615 25.8205 43.4667 26.829 41.1679 27.1857C40.8096 27.2126 40.4765 27.3808 40.2421 27.6532C40.0078 27.9256 39.8912 28.2799 39.9181 28.6383C39.9449 28.9967 40.1131 29.3297 40.3855 29.5641C40.6579 29.7985 41.0122 29.9151 41.3706 29.8882H41.5733C44.3821 29.4541 47.0076 28.2238 49.1386 26.343C51.2695 24.4623 52.8165 22.01 53.5963 19.2769C54.376 16.5437 54.3558 13.6443 53.5379 10.9223C52.7201 8.20034 51.139 5.7699 48.982 3.91911C46.825 2.06831 44.1826 0.874759 41.368 0.479935C38.5534 0.085111 35.6845 0.505567 33.1016 1.69147C30.5186 2.87736 28.3298 4.77898 26.7946 7.1709C25.2595 9.56283 24.4423 12.3448 24.4399 15.187C24.441 16.6987 24.6687 18.2018 25.1155 19.646C25.1621 19.8218 25.2437 19.9864 25.3554 20.1299C25.467 20.2734 25.6065 20.3929 25.7655 20.4812C25.9245 20.5695 26.0997 20.6249 26.2805 20.6439C26.4614 20.6629 26.6442 20.6452 26.8181 20.5918Z" fill="#1931AF"/>
</svg>
