<svg width="60" height="60" viewBox="0 0 60 60" fill="none" xmlns="http://www.w3.org/2000/svg">
<g clip-path="url(#clip0_739_34023)">
<path d="M16.91 22.3175L9.6925 29.14C6.7125 31.96 5 35.9325 5 40.0375V57.5C5 58.8825 3.8825 60 2.5 60C1.1175 60 0 58.8825 0 57.5V40.0375C0 34.565 2.28 29.265 6.2575 25.5075L13.4775 18.685C14.4725 17.7375 16.0625 17.78 17.01 18.785C17.96 19.7875 17.9125 21.37 16.91 22.3175ZM60 11.25V43.75C60 49.9525 54.9525 55 48.75 55H33.75C31.325 55 29.04 54.2125 27.125 52.805L26.0075 54.38C25.3475 55.3075 25 56.4 25 57.5375C25 58.92 23.8825 60 22.5 60C21.1175 60 20 58.9175 20 57.5375C20 55.355 20.67 53.26 21.9325 51.4825L31.995 37.3025C32.8525 36.0575 32.615 34.35 31.425 33.36C30.2925 32.4125 28.61 32.445 27.5175 33.4425L16.66 43.115C15.6325 44.0325 14.0475 43.9425 13.1325 42.9125C12.2125 41.8825 12.305 40.3025 13.335 39.385L24.1725 29.7275C27.08 27.0775 31.5825 26.9825 34.6275 29.5175C36.3425 30.9475 37.29 32.9375 37.4575 35H55V11.25C55 7.8025 52.1975 5 48.75 5H33.75C30.3025 5 27.5 7.8025 27.5 11.25V20C27.5 21.3825 26.3825 22.5 25 22.5C23.6175 22.5 22.5 21.3825 22.5 20V11.25C22.5 5.0475 27.5475 0 33.75 0H48.75C54.9525 0 60 5.0475 60 11.25ZM55 43.75V40H36.19C36.155 40.055 30.015 48.735 30.015 48.735C31.09 49.545 32.3775 50 33.75 50H48.75C52.1975 50 55 47.1975 55 43.75ZM42.5 42.5H40C38.6175 42.5 37.5 43.6175 37.5 45C37.5 46.3825 38.6175 47.5 40 47.5H42.5C43.8825 47.5 45 46.3825 45 45C45 43.6175 43.8825 42.5 42.5 42.5ZM50 17.5V22.5C51.38 22.5 52.5 23.62 52.5 25C52.5 26.38 51.38 27.5 50 27.5H39.6225C39.0925 26.8475 38.4975 26.2325 37.8275 25.675C36.2425 24.355 34.4075 23.5225 32.5 23.085V17.5C31.1825 17.625 29.9925 16.6275 30 15.2825C30 14.47 30.4425 13.725 31.155 13.335L39.64 8.7075C40.1425 8.435 40.695 8.2975 41.25 8.2975C41.805 8.2975 42.3575 8.435 42.86 8.7075L51.345 13.335C52.0575 13.7225 52.5 14.47 52.5 15.2825C52.5075 16.6275 51.3175 17.625 50 17.5ZM45 17.5H37.5V22.5H45V17.5Z" fill="#0054FD"/>
</g>
<defs>
<clipPath id="clip0_739_34023">
<rect width="60" height="60" fill="white"/>
</clipPath>
</defs>
</svg>
