<svg width="51" height="60" viewBox="0 0 51 60" fill="none" xmlns="http://www.w3.org/2000/svg">
<path d="M24.5435 0.128076C25.0562 -0.0426758 25.6108 -0.0427082 26.1235 0.128076L41.7856 5.34976C44.2757 6.17693 46.4417 7.76815 47.9761 9.89663C49.5104 12.0252 50.3349 14.5833 50.3325 17.2072V30.0001C50.3322 48.9071 27.3333 59.3493 26.3482 59.7843C26.0287 59.9262 25.683 59.9991 25.3335 59.9992C24.9838 59.9992 24.6374 59.9263 24.3179 59.7843C23.3293 59.3477 0.333822 48.9056 0.333501 30.0001V17.2072C0.331145 14.5833 1.15559 12.0252 2.68995 9.89663C4.22435 7.76805 6.39117 6.17694 8.88135 5.34976L24.5435 0.128076ZM10.4634 10.0929C8.96986 10.5904 7.6702 11.5446 6.74952 12.8214C5.82885 14.0983 5.3337 15.633 5.3335 17.2072V30.0001C5.33381 43.6722 21.1261 52.5894 25.3335 54.7218C29.5364 52.5816 45.3322 43.6369 45.3325 30.0001V17.2072C45.3323 15.633 44.8372 14.0983 43.9165 12.8214C42.9958 11.5446 41.6962 10.5904 40.2026 10.0929L25.3335 5.13491L10.4634 10.0929ZM35.3189 20.0158C35.6483 20.0161 35.9746 20.0818 36.2788 20.2082C36.5831 20.3346 36.8596 20.5199 37.0923 20.7531C37.325 20.9863 37.5095 21.2631 37.6353 21.5675C37.761 21.8721 37.826 22.1989 37.8257 22.5285C37.8253 22.8579 37.7597 23.1842 37.6333 23.4884C37.5069 23.7926 37.3225 24.0693 37.0894 24.3019L26.4087 34.9816C25.9718 35.4214 25.4522 35.7707 24.8794 36.008C24.3065 36.2453 23.6918 36.3664 23.0718 36.3644H22.9888C22.3561 36.3547 21.7317 36.2159 21.1538 35.9582C20.5761 35.7004 20.0563 35.3286 19.6265 34.8644L13.8618 28.8644C13.6247 28.6299 13.4366 28.3503 13.3091 28.0421C13.1817 27.734 13.1174 27.403 13.1196 27.0695C13.1219 26.736 13.1911 26.4062 13.3228 26.0998C13.4545 25.7933 13.6458 25.5156 13.8862 25.2843C14.1266 25.0532 14.411 24.8728 14.7222 24.7531C15.0335 24.6334 15.3663 24.5774 15.6997 24.588C16.033 24.5987 16.3606 24.6763 16.6636 24.8156C16.9667 24.9549 17.2392 25.1534 17.4644 25.3996L23.0737 31.2492L33.5444 20.7492C33.7776 20.5165 34.0544 20.3319 34.3589 20.2062C34.6633 20.0805 34.9895 20.0155 35.3189 20.0158Z" fill="#0054FD"/>
</svg>
