<svg width="28" height="28" viewBox="0 0 28 28" fill="none" xmlns="http://www.w3.org/2000/svg">
<path d="M24.0635 3.0625H3.93848C3.45449 3.0625 3.06348 3.45352 3.06348 3.9375V24.0625C3.06348 24.5465 3.45449 24.9375 3.93848 24.9375H24.0635C24.5475 24.9375 24.9385 24.5465 24.9385 24.0625V3.9375C24.9385 3.45352 24.5475 3.0625 24.0635 3.0625ZM21.5369 9.44727H19.7896C18.4197 9.44727 18.1545 10.098 18.1545 11.0551V13.1633H21.4248L20.9982 16.4637H18.1545V24.9375H14.7447V16.4664H11.8928V13.1633H14.7447V10.7297C14.7447 7.90508 16.4701 6.36563 18.9912 6.36563C20.1998 6.36563 21.2361 6.45586 21.5396 6.49688V9.44727H21.5369Z" fill="#383F52"/>
</svg>
