<svg width="60" height="60" viewBox="0 0 60 60" fill="none" xmlns="http://www.w3.org/2000/svg">
<g clip-path="url(#clip0_739_34107)">
<path d="M25 57.5C25 58.88 23.88 60 22.5 60H12.5C5.6075 60 0 54.3925 0 47.5V12.5C0 5.6075 5.6075 0 12.5 0H32.5C39.3925 0 45 5.6075 45 12.5V17.5C45 18.88 43.88 20 42.5 20C41.12 20 40 18.88 40 17.5V12.5C40 8.365 36.635 5 32.5 5H12.5C8.365 5 5 8.365 5 12.5V47.5C5 51.635 8.365 55 12.5 55H22.5C23.88 55 25 56.12 25 57.5ZM35 15C35 13.62 33.88 12.5 32.5 12.5H12.5C11.12 12.5 10 13.62 10 15C10 16.38 11.12 17.5 12.5 17.5H32.5C33.88 17.5 35 16.38 35 15ZM12.5 37.5C11.12 37.5 10 38.62 10 40C10 41.38 11.12 42.5 12.5 42.5H17.5C18.88 42.5 20 41.38 20 40C20 38.62 18.88 37.5 17.5 37.5H12.5ZM60 42.5C60 52.15 52.15 60 42.5 60C32.85 60 25 52.15 25 42.5C25 32.85 32.85 25 42.5 25C52.15 25 60 32.85 60 42.5ZM55 42.5C55 35.6075 49.3925 30 42.5 30C35.6075 30 30 35.6075 30 42.5C30 49.3925 35.6075 55 42.5 55C49.3925 55 55 49.3925 55 42.5ZM42.5 32.5C40.43 32.5 38.75 34.18 38.75 36.25C38.75 38.32 40.43 40 42.5 40C44.57 40 46.25 38.32 46.25 36.25C46.25 34.18 44.57 32.5 42.5 32.5ZM42.5 42.5C41.12 42.5 40 43.62 40 45V50C40 51.38 41.12 52.5 42.5 52.5C43.88 52.5 45 51.38 45 50V45C45 43.62 43.88 42.5 42.5 42.5ZM25 27.5C25 26.12 23.88 25 22.5 25H12.5C11.12 25 10 26.12 10 27.5C10 28.88 11.12 30 12.5 30H22.5C23.88 30 25 28.88 25 27.5Z" fill="#0054FD"/>
</g>
<defs>
<clipPath id="clip0_739_34107">
<rect width="60" height="60" fill="white"/>
</clipPath>
</defs>
</svg>
