<svg width="26" height="26" viewBox="0 0 26 26" fill="none" xmlns="http://www.w3.org/2000/svg">
<path d="M13.0001 6.58633C9.45327 6.58633 6.59077 9.44883 6.59077 12.9957C6.59077 16.5426 9.45327 19.4051 13.0001 19.4051C16.547 19.4051 19.4095 16.5426 19.4095 12.9957C19.4095 9.44883 16.547 6.58633 13.0001 6.58633ZM13.0001 17.1613C10.7064 17.1613 8.83452 15.2895 8.83452 12.9957C8.83452 10.702 10.7064 8.83008 13.0001 8.83008C15.2939 8.83008 17.1658 10.702 17.1658 12.9957C17.1658 15.2895 15.2939 17.1613 13.0001 17.1613ZM19.672 4.83008C18.8439 4.83008 18.1751 5.49883 18.1751 6.32695C18.1751 7.15508 18.8439 7.82383 19.672 7.82383C20.5002 7.82383 21.1689 7.15821 21.1689 6.32695C21.1691 6.13031 21.1306 5.93555 21.0555 5.75383C20.9803 5.57211 20.8701 5.407 20.731 5.26795C20.592 5.12891 20.4269 5.01866 20.2451 4.94352C20.0634 4.86838 19.8687 4.82983 19.672 4.83008ZM25.4939 12.9957C25.4939 11.2707 25.5095 9.56133 25.4127 7.83945C25.3158 5.83945 24.8595 4.06445 23.397 2.60195C21.9314 1.13633 20.1595 0.683205 18.1595 0.58633C16.4345 0.489455 14.7251 0.50508 13.0033 0.50508C11.2783 0.50508 9.5689 0.489455 7.84702 0.58633C5.84702 0.683205 4.07202 1.13945 2.60952 2.60195C1.1439 4.06758 0.690773 5.83945 0.593898 7.83945C0.497023 9.56446 0.512648 11.2738 0.512648 12.9957C0.512648 14.7176 0.497023 16.4301 0.593898 18.152C0.690773 20.152 1.14702 21.927 2.60952 23.3895C4.07515 24.8551 5.84702 25.3082 7.84702 25.4051C9.57202 25.502 11.2814 25.4863 13.0033 25.4863C14.7283 25.4863 16.4376 25.502 18.1595 25.4051C20.1595 25.3082 21.9345 24.852 23.397 23.3895C24.8627 21.9238 25.3158 20.152 25.4127 18.152C25.5127 16.4301 25.4939 14.7207 25.4939 12.9957ZM22.7439 20.3645C22.5158 20.9332 22.2408 21.3582 21.8001 21.7957C21.3595 22.2363 20.9377 22.5113 20.3689 22.7395C18.7252 23.3926 14.822 23.2457 13.0001 23.2457C11.1783 23.2457 7.27202 23.3926 5.62827 22.7426C5.05952 22.5145 4.63452 22.2395 4.19702 21.7988C3.7564 21.3582 3.4814 20.9363 3.25327 20.3676C2.60327 18.7207 2.75015 14.8176 2.75015 12.9957C2.75015 11.1738 2.60327 7.26758 3.25327 5.62383C3.4814 5.05508 3.7564 4.63008 4.19702 4.19258C4.63765 3.75508 5.05952 3.47696 5.62827 3.24883C7.27202 2.59883 11.1783 2.7457 13.0001 2.7457C14.822 2.7457 18.7283 2.59883 20.372 3.24883C20.9408 3.47696 21.3658 3.75196 21.8033 4.19258C22.2439 4.6332 22.5189 5.05508 22.747 5.62383C23.397 7.26758 23.2502 11.1738 23.2502 12.9957C23.2502 14.8176 23.397 18.7207 22.7439 20.3645Z" fill="#383F52"/>
</svg>
