<svg width="61" height="60" viewBox="0 0 61 60" fill="none"
    xmlns="http://www.w3.org/2000/svg">
    <path d="M28.5433 40.2502C29.059 40.7059 29.7058 40.9351 30.3526 40.9351C30.9994 40.9351 31.6462 40.7059 32.1619 40.2502C33.652 38.9293 46.7267 27.039 46.7267 16.3741C46.7267 5.0514 41.6753 0 30.3526 0C19.0299 0 13.9785 5.0514 13.9785 16.3741C13.9785 27.039 27.0532 38.9293 28.5433 40.2502ZM30.3526 5.45802C38.616 5.45802 41.2686 8.11062 41.2686 16.3741C41.2686 22.3506 34.5089 30.322 30.3526 34.4537C26.1963 30.322 19.4366 22.3506 19.4366 16.3741C19.4366 8.11062 22.0892 5.45802 30.3526 5.45802ZM60.369 40.916C60.369 41.6692 60.0579 42.3924 59.5066 42.9055C59.2801 43.1211 53.8248 48.2025 46.915 52.3424C40.0515 56.455 31.6816 59.6834 31.3296 59.8199C30.6992 60.06 30.0033 60.06 29.3729 59.8199C29.0208 59.6834 20.651 56.455 13.7875 52.3424C6.87766 48.2025 1.4251 43.1211 1.19586 42.9055C0.644603 42.3924 0.333496 41.6692 0.333496 40.916C0.333496 40.1628 0.647332 39.4396 1.19586 38.9266C1.34869 38.782 5.00283 35.3761 10.1033 31.8639C11.3505 31.0125 13.0452 31.329 13.8994 32.5653C14.7536 33.807 14.4397 35.5071 13.198 36.364C10.7801 38.026 8.68699 39.688 7.21333 40.9188C9.34196 42.6954 12.7587 45.3671 16.5957 47.6676C21.7289 50.7432 27.9784 53.3794 30.3553 54.34C32.7296 53.3767 38.979 50.7432 44.115 47.6676C47.952 45.3671 51.366 42.6981 53.4973 40.9188C52.1028 39.7535 50.1543 38.2061 47.9029 36.6342C46.6666 35.7719 46.3637 34.0717 47.2261 32.8327C48.0884 31.5992 49.7886 31.299 51.0248 32.1559C55.9098 35.5672 59.3674 38.7929 59.5121 38.9239C60.0633 39.4396 60.3744 40.1628 60.3744 40.916H60.369ZM30.3526 21.8321C26.4528 21.8321 24.8946 20.2738 24.8946 16.3741C24.8946 12.4743 26.4528 10.916 30.3526 10.916C34.2524 10.916 35.8106 12.4743 35.8106 16.3741C35.8106 20.2738 34.2524 21.8321 30.3526 21.8321Z" fill="#0054FD"/>
</svg>
