<svg width="60" height="47" viewBox="0 0 60 47" fill="none" xmlns="http://www.w3.org/2000/svg">
<path d="M51.1863 15.8468C50.452 11.8753 47.3245 8.74788 43.353 8.0135C42.5129 3.46233 38.5316 0 33.7415 0H9.45817C4.05905 0 -0.333496 4.39254 -0.333496 9.79167V21.5417C-0.333496 26.3318 3.12884 30.313 7.68 31.1532C8.41438 35.1247 11.5418 38.2521 15.5133 38.9865C16.3535 43.5377 20.3348 47 25.1248 47H49.4082C54.8073 47 59.1998 42.6075 59.1998 37.2083V25.4583C59.1998 20.6683 55.7375 16.687 51.1863 15.8468ZM3.58317 21.5417V9.79167C3.58317 6.55258 6.21909 3.91667 9.45817 3.91667H33.7415C36.2913 3.91667 38.4454 5.55971 39.2562 7.83333H17.2915C11.8924 7.83333 7.49984 12.2259 7.49984 17.625V27.0563C5.22621 26.2456 3.58317 24.0914 3.58317 21.5417ZM11.4165 29.375V17.625C11.4165 14.3859 14.0524 11.75 17.2915 11.75H41.5748C44.1246 11.75 46.2788 13.393 47.0895 15.6667H25.1248C19.7257 15.6667 15.3332 20.0592 15.3332 25.4583V34.8897C13.0595 34.0789 11.4165 31.9248 11.4165 29.375ZM55.2832 37.2083C55.2832 40.4474 52.6473 43.0833 49.4082 43.0833H25.1248C21.8858 43.0833 19.2498 40.4474 19.2498 37.2083V25.4583C19.2498 22.2192 21.8858 19.5833 25.1248 19.5833H49.4082C52.6473 19.5833 55.2832 22.2192 55.2832 25.4583V37.2083Z" fill="#0054FD"/>
</svg>
