<svg width="26" height="26" viewBox="0 0 26 26" fill="none" xmlns="http://www.w3.org/2000/svg">
<path d="M24.9197 17.3358H21.6679C21.0717 17.3358 20.5839 17.8236 20.5839 18.4197C20.5839 19.0159 21.0717 19.5036 21.6679 19.5036H22.3074L20.5839 21.227L19.1856 19.8288C18.7629 19.4061 18.08 19.4061 17.6572 19.8288L13.3214 24.1643C12.8987 24.5871 12.8987 25.2699 13.3214 25.6926C13.5382 25.9094 13.8092 26.007 14.0911 26.007C14.3729 26.007 14.6439 25.8986 14.8607 25.6926L18.4269 22.1266L19.8251 23.5248C20.2479 23.9476 20.9308 23.9476 21.3535 23.5248L23.8358 21.0427V21.6822C23.8358 22.2784 24.3235 22.7661 24.9197 22.7661C25.5159 22.7661 26.0037 22.2784 26.0037 21.6822V18.4305C26.0037 17.8344 25.5159 17.3467 24.9197 17.3467V17.3358Z" fill="#1931AF"/>
<path d="M7.57681 14.0837H11.9126C13.842 14.0837 15.6414 15.1242 16.5953 16.7934C16.8879 17.3137 17.56 17.4871 18.0803 17.1944C18.6006 16.8909 18.774 16.2298 18.4813 15.7095C17.56 14.1053 16.075 12.9347 14.3732 12.3386C15.8582 11.0488 16.8012 9.15194 16.8012 7.03835C16.8012 3.15801 13.6361 -0.00695801 9.75554 -0.00695801C5.87501 -0.00695801 2.70987 3.15801 2.70987 7.03835C2.70987 9.15194 3.65291 11.0379 5.12708 12.3386C2.14622 13.3683 0 16.1864 0 19.5031V23.8387C0 25.031 0.975554 26.0065 2.1679 26.0065H9.75554C10.3517 26.0065 10.8395 25.5187 10.8395 24.9226C10.8395 24.3265 10.3517 23.8387 9.75554 23.8387H2.1679V19.5031C2.1679 16.5116 4.59595 14.0837 7.58765 14.0837H7.57681ZM9.74471 2.16083C12.4329 2.16083 14.6225 4.35029 14.6225 7.03835C14.6225 9.72641 12.4329 11.9159 9.74471 11.9159C7.05651 11.9159 4.86693 9.72641 4.86693 7.03835C4.86693 4.35029 7.05651 2.16083 9.74471 2.16083Z" fill="#1931AF"/>
</svg>
