<svg width="60" height="60" viewBox="0 0 60 60" fill="none" xmlns="http://www.w3.org/2000/svg">
<g clip-path="url(#clip0_739_34102)">
<path d="M51.86 29.175L55.4225 25.6125C57.7925 28.6125 59.37 32.26 59.84 36.2475H54.7875C54.3825 33.63 53.3575 31.2225 51.86 29.1725V29.175ZM51.86 48.3225L55.4225 51.885C57.7925 48.885 59.37 45.2375 59.84 41.25H54.7875C54.3825 43.8675 53.3575 46.2725 51.86 48.3225ZM25.615 55.42C28.615 57.79 32.2625 59.3675 36.25 59.8375V54.785C33.6325 54.38 31.225 53.355 29.175 51.8575L25.6125 55.42H25.615ZM41.25 54.7875V59.84C45.2375 59.37 48.885 57.7925 51.885 55.4225L48.3225 51.86C46.275 53.3575 43.87 54.3825 41.25 54.7875ZM42.4125 22.9725C41.5775 33.315 33.315 41.5775 22.9725 42.4125C23.48 44.5725 24.375 46.585 25.6475 48.3225C25.645 48.3225 25.6425 48.3225 25.64 48.3225L22.08 51.8825C19.8975 49.12 18.385 45.8075 17.79 42.19C7.715 40.53 0 31.785 0 21.25C0 9.5325 9.5325 0 21.25 0C31.785 0 40.53 7.715 42.1925 17.7875C45.81 18.385 49.1225 19.8975 51.885 22.0775L48.3225 25.64C48.3225 25.64 48.3225 25.645 48.3225 25.6475C46.585 24.375 44.5725 23.48 42.4125 22.9725ZM17.585 37.0675C18.405 26.6925 26.6925 18.405 37.0675 17.585C35.4 10.3875 28.9475 5 21.25 5C12.29 5 5 12.29 5 21.25C5 28.9475 10.3875 35.4 17.585 37.0675ZM37.4325 22.57C37.3 22.58 34.55 22.7875 32.4275 23.78C28.605 25.565 25.5 28.575 23.78 32.4275C22.4025 35.5125 22.58 37.3 22.57 37.4325C30.475 36.7925 36.79 30.4775 37.4325 22.57Z" fill="#0054FD"/>
</g>
<defs>
<clipPath id="clip0_739_34102">
<rect width="60" height="60" fill="white"/>
</clipPath>
</defs>
</svg>
